PathFileType	4	(X/Y/Z)	C:\Users\Basilio\Documents\Thesis Gigler\squatting_fais\c3dfiles\041\SJ_pre4\markers_experimental.trc
DataRate	CameraRate	NumFrames	NumMarkers	Units	OrigDataRate	OrigDataStartFrame	OrigNumFrames
200.000000	200.000000	4	62	mm	200.000000	223	1785
Frame#	Time	FHD			LBHD			RBHD			C7			T10			CLAV			LSHO			LUUPA			LMUPA			LDUPA			LLEP			LMEP			LRAD			LUL			LRFIN			RSHO			RUPA1			RMUPA			RDUPA			RLEP			RMEP			RRAD			RUL			RUFIN			LASI			RASI			USACR			LSACR			RSACR			LTHI1			LTHI2			LTHI3			LTHI4			LLFC			LMFC			LTIB1			LTIB2			LTIB3			LTIB4			LLMAL			LMMAL			LHEE			LMT1			LMT2			LMT5			RTHI			RTHI2			RTHI3			RTHI4			RLFC			RMFC			RTIB1			RTIB2			RTIB3			RTIB4			RLMAL			RMMAL			RHEE			RMT1			RMT2			RMT5			*61			
		X1	Y1	Z1	X2	Y2	Z2	X3	Y3	Z3	X4	Y4	Z4	X5	Y5	Z5	X6	Y6	Z6	X7	Y7	Z7	X8	Y8	Z8	X9	Y9	Z9	X10	Y10	Z10	X11	Y11	Z11	X12	Y12	Z12	X13	Y13	Z13	X14	Y14	Z14	X15	Y15	Z15	X16	Y16	Z16	X17	Y17	Z17	X18	Y18	Z18	X19	Y19	Z19	X20	Y20	Z20	X21	Y21	Z21	X22	Y22	Z22	X23	Y23	Z23	X24	Y24	Z24	X25	Y25	Z25	X26	Y26	Z26	X27	Y27	Z27	X28	Y28	Z28	X29	Y29	Z29	X30	Y30	Z30	X31	Y31	Z31	X32	Y32	Z32	X33	Y33	Z33	X34	Y34	Z34	X35	Y35	Z35	X36	Y36	Z36	X37	Y37	Z37	X38	Y38	Z38	X39	Y39	Z39	X40	Y40	Z40	X41	Y41	Z41	X42	Y42	Z42	X43	Y43	Z43	X44	Y44	Z44	X45	Y45	Z45	X46	Y46	Z46	X47	Y47	Z47	X48	Y48	Z48	X49	Y49	Z49	X50	Y50	Z50	X51	Y51	Z51	X52	Y52	Z52	X53	Y53	Z53	X54	Y54	Z54	X55	Y55	Z55	X56	Y56	Z56	X57	Y57	Z57	X58	Y58	Z58	X59	Y59	Z59	X60	Y60	Z60	X61	Y61	Z61	X62	Y62	Z62	

224	1.115	-216.5452270507813	1713.409790039063	-934.9129638671877	-395.0687255859376	1679.468383789063	-1025.825073242188	-386.8438415527345	1676.757568359375	-872.101501464844	-455.5829467773439	1521.490478515625	-972.0051879882815	-483.9586791992189	1202.838500976563	-967.2669067382815	-302.0390625000001	1456.264282226563	-959.6990356445315	-367.9662170410157	1513.447875976563	-1135.747314453125	-416.1508178710939	1381.306396484375	-1280.680419921875	-394.3132629394532	1336.683227539063	-1278.233764648438	-435.6387023925782	1329.982177734375	-1323.336547851563	-444.6271362304689	1282.78515625	-1347.971069335938	-505.9704589843751	1244.661499023438	-1290.392211914063	-370.2980041503907	1092.748046875	-1172.446166992188	-349.6319274902344	1051.802124023438	-1231.080078125	-324.3768615722657	1075.731811523438	-1130.441650390625	-387.0375061035157	1511.00732421875	-796.8394775390627	-471.2634887695314	1366.537109375	-647.2816772460939	-428.1531372070314	1339.295288085938	-646.7728271484376	-458.5185546875001	1307.559692382813	-609.2617797851564	-455.846160888672	1259.567749023438	-590.7252197265626	-521.8692626953126	1231.65869140625	-652.2914428710939	-413.201141357422	1057.742919921875	-743.8229370117189	-367.9158630371094	1055.77392578125	-786.5874633789065	-376.7039794921876	1024.05517578125	-685.6809082031251	-293.0954589843751	1016.374816894531	-1062.575561523438	-320.7411804199219	1002.268859863281	-845.7007446289065	-484.5345153808595	1092.572998046875	-971.2622680664065	-497.8524169921876	1069.005859375	-1000.812744140625	-507.3389892578126	1066.460693359375	-947.599548339844	-413.6761779785157	828.2923583984377	-1168.3359375	-381.5209045410157	749.5329589843751	-1168.854736328125	-334.9977722167969	750.1464843750001	-1153.691284179688	-412.9885864257814	697.2282714843751	-1166.019897460938	-402.2634582519532	515.6051635742189	-1168.912963867188	-404.3064575195314	483.9619140625001	-1052.732666015625	-371.6105346679688	319.5727539062501	-1132.219848632813	-413.4805297851564	283.3174743652344	-1203.454223632813	-378.0282592773438	277.0186157226563	-1174.979370117188	-378.2885742187501	196.7107086181641	-1150.934692382813	-431.296112060547	100.6740341186524	-1204.614624023438	-393.5571899414064	105.26220703125	-1122.108154296875	-487.4295043945314	51.96268844604494	-1168.77978515625	-270.9947814941407	61.2964210510254	-1140.590698242188	-264.9445190429688	60.37561035156251	-1185.091674804688	-303.8042907714844	35.98127746582032	-1242.269409179688	-435.3801879882814	756.9331665039064	-766.4854125976564	-393.8028869628907	706.2045288085939	-754.6881103515626	-360.8490600585938	709.5009765625001	-757.5654907226564	-414.5073852539064	624.2786254882814	-763.1050415039064	-394.3829345703126	502.4152832031251	-743.9501953125001	-379.1625976562501	470.0123596191407	-858.4251098632815	-360.0917053222657	334.6504516601563	-732.5173950195314	-444.2229614257814	264.0223999023438	-702.4187011718751	-397.6076965332032	259.9370727539063	-706.2171630859376	-378.0370483398438	207.7850189208985	-728.0449829101564	-437.2122802734376	96.38028717041018	-694.0126342773439	-408.8892517089845	100.6918411254883	-776.6580200195315	-495.0956115722657	49.40746688842775	-739.8399047851564	-276.4905090332032	53.1233596801758	-742.0884399414064	-275.4854736328126	61.07378387451173	-690.3233032226564	-321.3425598144532	40.49545669555665	-643.2887573242189	-4216.979003906251	853.1547851562502	-3944.740478515626	
225	1.12	-216.8198394775391	1713.57373046875	-935.0989990234377	-394.9720764160157	1679.540283203125	-1026.118530273438	-387.2005004882814	1677.06884765625	-872.3934326171877	-455.8311462402345	1521.5302734375	-972.324645996094	-484.1054077148439	1202.866455078125	-967.4634399414065	-302.5785522460938	1456.452026367188	-959.7476806640627	-367.8958740234376	1513.370483398438	-1135.861572265625	-415.6148071289064	1380.9814453125	-1280.727294921875	-393.9738159179689	1336.399780273438	-1278.251708984375	-435.1846618652345	1329.67431640625	-1323.40625	-444.1781311035157	1282.533081054688	-1348.087280273438	-505.6083374023439	1244.40869140625	-1290.52490234375	-369.9786682128907	1092.580078125	-1172.287719726563	-349.2168273925782	1051.661254882813	-1230.880249023438	-324.1959533691407	1075.614135742188	-1130.221923828125	-387.5049438476564	1511.128051757813	-796.9739990234377	-471.8285217285157	1366.734252929688	-647.5462646484376	-428.6956481933595	1339.379272460938	-646.9915161132814	-459.361297607422	1307.69287109375	-609.4151000976564	-456.539276123047	1259.667236328125	-591.0201416015626	-522.5553588867189	1231.795654296875	-652.5855102539064	-414.0321044921876	1057.817260742188	-743.8021850585939	-368.4164733886719	1055.757446289063	-786.3671875000002	-377.4297180175782	1024.15673828125	-685.5717773437501	-293.1147155761719	1016.401184082031	-1062.24560546875	-321.2954406738282	1002.283203125	-845.3269653320315	-484.6469116210939	1092.619995117188	-971.4018554687502	-497.7437744140626	1068.993408203125	-1000.974975585938	-507.4859008789064	1066.522827148438	-947.7967529296877	-413.6652832031251	828.293151855469	-1168.255859375	-381.6950988769532	749.5317382812501	-1168.688598632813	-335.2169799804688	750.1671142578126	-1153.421508789063	-413.1523437500001	697.2394409179689	-1165.940795898438	-402.4017639160157	515.6092529296876	-1168.824584960938	-404.8326416015626	483.9040527343751	-1052.576782226563	-371.9598693847657	319.6322631835938	-1132.018798828125	-414.0650024414064	283.4858093261719	-1203.255004882813	-378.2760009765626	276.9363403320313	-1174.852416992188	-378.3491210937501	196.7852935791016	-1150.946166992188	-431.2909545898439	100.6772613525391	-1204.587524414063	-393.5519104003907	105.2742919921875	-1122.096557617188	-487.4162597656251	51.96255111694337	-1168.749755859375	-270.8975830078126	61.33533096313478	-1140.545166015625	-264.8692626953126	60.42863845825197	-1185.090087890625	-303.8630065917969	35.99373245239259	-1242.262329101563	-436.2504272460939	757.0244140625001	-766.3994140625001	-394.6837463378907	706.3653564453126	-754.5289306640626	-361.4707336425782	709.6740722656251	-757.5286865234376	-415.4429931640626	624.4713745117189	-762.8789672851564	-395.2307128906251	502.5065002441407	-743.7907714843751	-379.5892028808594	470.0452270507814	-858.1548461914065	-360.5268859863282	334.5553283691407	-732.3509521484376	-444.8889160156251	264.0394592285157	-702.1840209960939	-397.9450683593751	259.9194335937501	-706.0913085937501	-378.5054321289063	207.8847656250001	-727.9287109375001	-437.3329467773439	96.27750396728518	-693.8952026367189	-409.0621032714845	100.7466201782227	-776.5241699218752	-495.4345703125001	49.25564575195314	-739.6223144531251	-276.9039916992188	53.32102966308595	-742.2933959960939	-275.5939025878907	61.22546768188478	-690.3806152343751	-321.3078002929688	40.57523345947266	-643.4411621093751	-4216.929687500001	853.106140136719	-3944.701171875001	
226	1.125	-217.0431823730469	1713.610717773438	-935.1633300781252	-395.2309570312501	1679.55322265625	-1026.405517578125	-387.7959594726564	1677.053466796875	-872.615417480469	-456.0995178222657	1521.534301757813	-972.5781250000002	-484.2940063476564	1202.903564453125	-967.653015136719	-302.8602600097657	1456.567016601563	-959.7746582031252	-367.1808471679688	1513.088134765625	-1136.036743164063	-415.2222595214845	1380.77783203125	-1280.838989257813	-393.5794677734376	1336.1181640625	-1278.2861328125	-434.7050170898439	1329.352416992188	-1323.437622070313	-443.7756958007814	1282.309692382813	-1348.170654296875	-505.2998962402345	1244.179809570313	-1290.650512695313	-369.6753540039063	1092.4736328125	-1172.13232421875	-348.7885742187501	1051.499633789063	-1230.665161132813	-323.9886779785157	1075.453369140625	-1129.801147460938	-387.9500427246095	1511.221313476563	-797.0605468750002	-472.4907531738282	1366.92822265625	-647.7462768554689	-429.3785400390626	1339.568359375	-647.0957641601564	-460.143768310547	1307.940307617188	-609.6018066406251	-457.5863342285157	1259.961669921875	-591.0400390625001	-523.2858276367189	1231.998779296875	-652.8306884765626	-414.841522216797	1057.8681640625	-743.8696899414064	-368.8135070800782	1055.860595703125	-786.2466430664065	-378.4039306640626	1024.219970703125	-685.2067871093751	-292.9856262207032	1016.311950683594	-1062.001831054688	-321.7332153320313	1002.3671875	-844.862976074219	-484.7390136718751	1092.641479492188	-971.5377197265627	-497.3580017089845	1068.823608398438	-1001.124633789063	-507.5827941894532	1066.641235351563	-947.9095458984377	-413.4389038085939	827.7039184570315	-1168.216552734375	-381.7366333007813	749.5573120117189	-1168.575439453125	-335.2398681640626	750.0314331054689	-1153.253784179688	-413.2182617187501	697.2678833007814	-1165.865966796875	-402.7523498535157	515.6669921875001	-1168.758178710938	-405.2874145507814	483.8972167968751	-1052.38818359375	-372.0941467285157	319.6831970214844	-1131.942626953125	-413.7828063964845	283.3840637207032	-1203.283081054688	-378.4310913085938	277.1578979492188	-1174.763916015625	-378.5272216796876	196.7681884765626	-1150.740844726563	-431.2630920410157	100.6700744628907	-1204.567016601563	-393.5310058593751	105.2683868408203	-1122.087524414063	-487.6307067871095	52.22433090209962	-1168.625244140625	-270.9483032226563	61.30795669555665	-1140.521850585938	-264.8673706054688	60.4491310119629	-1185.070068359375	-303.8731079101563	36.0629005432129	-1242.238647460938	-436.891815185547	757.1502685546876	-766.3170166015626	-395.4073791503907	706.4695434570314	-754.2075195312501	-362.1999816894532	709.8545532226564	-757.3410034179689	-416.192108154297	624.6408691406251	-762.8598022460939	-395.6539001464845	502.5028381347657	-743.8247680664064	-380.7983398437501	470.3551330566407	-858.0181274414065	-361.0089721679688	334.7063598632813	-732.1136474609376	-445.3160705566407	264.0048522949219	-702.0778198242189	-398.3390502929689	259.9995727539063	-705.8763427734376	-378.8075866699219	207.9924468994141	-727.7329101562501	-437.4664611816407	96.15891265869143	-693.7665405273439	-409.2387084960939	100.8402557373047	-776.4478759765627	-495.4492492675782	49.17049026489259	-739.5439453125001	-276.9374084472657	53.40010452270509	-742.3615112304689	-275.6298522949219	61.41857147216798	-690.5296020507814	-321.3237304687501	40.68268203735352	-643.5379028320314	-4217.282714843751	853.1614379882815	-3944.648437500001	
227	1.13	-217.2306365966797	1713.707397460938	-935.286560058594	-395.5292968750001	1679.55126953125	-1026.671630859375	-388.1581420898439	1677.18896484375	-872.7813720703127	-456.1968688964845	1521.601318359375	-972.7695922851565	-484.4256591796876	1202.941284179688	-967.8242797851565	-302.9201354980469	1456.600341796875	-959.666442871094	-367.0182495117188	1512.972778320313	-1136.144287109375	-414.9234313964845	1380.596435546875	-1280.854858398438	-393.2092285156251	1335.911987304688	-1278.247680664063	-434.3094787597657	1329.07177734375	-1323.435424804688	-443.4902648925782	1282.095092773438	-1348.186157226563	-504.8042602539064	1244.005737304688	-1290.734985351563	-369.2987670898438	1092.35009765625	-1171.9873046875	-348.4712524414063	1051.465454101563	-1230.44921875	-323.7764892578126	1075.372314453125	-1129.599609375	-388.3786926269532	1511.297729492188	-797.171081542969	-473.1594543457032	1366.965698242188	-647.9453125000001	-430.4461669921876	1339.726318359375	-647.0634765625001	-460.9671325683595	1308.104125976563	-609.7253417968751	-458.4023437500001	1260.117065429688	-591.1682128906251	-524.0788574218751	1232.19970703125	-653.0663452148439	-415.4689331054689	1058.011474609375	-743.8587036132814	-369.3017578125001	1056.039184570313	-786.1093750000002	-378.9607849121094	1024.37744140625	-685.2481079101564	-292.9291687011719	1016.233215332031	-1061.663818359375	-322.1581726074219	1002.452331542969	-844.4932861328127	-484.887420654297	1092.7353515625	-971.621765136719	-497.4038391113282	1068.886108398438	-1001.245422363281	-507.7071533203126	1066.729614257813	-948.0949707031252	-413.4828186035157	827.7144165039065	-1168.13427734375	-381.8513488769532	749.5249633789064	-1168.407958984375	-335.2769165039063	750.0217895507814	-1153.06103515625	-413.3818664550782	697.3170776367189	-1165.726318359375	-403.0181274414064	515.6211547851564	-1168.621704101563	-405.8150634765626	483.9030761718751	-1052.209106445313	-372.1985778808594	319.7079772949219	-1131.813842773438	-413.9783935546876	283.4523925781251	-1203.160034179688	-378.5458984375001	277.1204528808594	-1174.610595703125	-378.6175537109376	196.7987213134766	-1150.632690429688	-431.3083496093751	100.6935119628907	-1204.490234375	-393.5360412597657	105.200424194336	-1122.038696289063	-487.4407653808595	51.9716033935547	-1168.700439453125	-270.9239196777344	61.31871795654298	-1140.520263671875	-264.8430175781251	60.4546585083008	-1185.054321289063	-303.8574523925782	36.05966186523438	-1242.158569335938	-437.5714111328126	757.3104248046876	-766.1764526367189	-396.0877075195314	706.6419067382814	-754.0814208984376	-362.8281250000001	709.9595336914064	-757.0125122070314	-416.5491333007814	624.7946166992189	-762.6390991210939	-396.3385009765626	502.5164794921876	-743.5726318359376	-381.2291870117188	470.3983154296876	-857.7674560546877	-361.6988525390626	334.8418579101563	-731.9216918945314	-445.7252502441407	263.9372558593751	-701.8624877929689	-398.7023925781251	260.0150451660157	-705.7714233398439	-378.9662780761719	208.0436553955079	-727.6099853515626	-437.552947998047	96.02131652832034	-693.6909790039064	-409.1254882812501	101.0182571411133	-776.4829101562502	-495.5628051757814	49.06777191162111	-739.4482421875001	-277.0357360839844	53.47951126098634	-742.4314575195314	-275.6972045898438	61.60183715820314	-690.5917358398439	-321.3025512695313	40.72966766357423	-643.6319580078126	-4216.753906250001	853.090026855469	-3944.747802734376	
